<?xml version="1.0" encoding="UTF-8"?>
<svg width="163mm" height="86.51mm" version="1.1" viewBox="0 0 163 86.51" xmlns="http://www.w3.org/2000/svg">
 <g transform="translate(-13.77 -37.76)">
  <g transform="matrix(.3072 0 0 .3072 -259.4 -132.3)" style="stroke-width:3.255">
   <path class="church-wall" d="m889 835.1c192.8-0.1786 313.9-0.0293 530.4 0v-215.5h-45.85v2.272s-52.47 2.554-81.72 0c-5.632-0.4919-11.4-0.9731-16.7-2.94-3.596-1.334-9.889-5.88-9.889-5.88s-7.598 4.013-11.36 2.94c-15.27-4.357-24.64-26.21-36.65-37.88-17.31-16.82-40.49-24.53-63.04-24.53s-46.09 10.15-63.04 24.53c-12.93 10.97-21.38 33.52-36.65 37.88-3.761 1.073-11.36-2.94-11.36-2.94s-6.294 4.546-9.889 5.88c-5.3 1.967-11.07 2.448-16.7 2.94-29.24 2.554-81.72 0-81.72 0v-2.272h-45.85z"/>
   <path class="church-detail" d="m1413 643.9h-32.61v2.272s-58.82 2.554-88.07 0c-5.632-0.4919-11.4-0.9731-16.7-2.94-3.596-1.334-9.889-5.88-9.889-5.88s-7.598 4.013-11.36 2.94c-15.27-4.357-24.64-26.21-36.65-37.88-17.31-16.82-40.49-24.53-63.04-24.53s-46.09 10.15-63.04 24.53c-12.93 10.97-21.38 33.52-36.65 37.88-3.761 1.073-11.36-2.94-11.36-2.94s-6.294 4.546-9.889 5.88c-5.3 1.967-11.07 2.448-16.7 2.94-29.24 2.554-88.07 0-88.07 0v-2.272h-32.61v-3.704h32.61v2.272s58.82 2.554 88.07 0c5.632-0.4919 11.4-0.9731 16.7-2.94 3.596-1.334 9.889-5.88 9.889-5.88s7.598 4.013 11.36 2.94c15.27-4.357 23.72-26.91 36.65-37.88 16.95-14.37 40.49-24.53 63.04-24.53s45.72 7.706 63.04 24.53c12.01 11.67 21.38 33.52 36.65 37.88 3.761 1.073 11.36-2.94 11.36-2.94s6.294 4.546 9.889 5.88c5.3 1.967 11.07 2.448 16.7 2.94 29.24 2.554 88.07 0 88.07 0v-2.272h32.61z"/>
   <path class="church-detail" d="m1416 633.3h-36.05v2.272s-58.82 2.554-88.07 0c-5.632-0.4919-11.4-0.9731-16.7-2.94-3.596-1.334-9.889-5.88-9.889-5.88s-7.598 4.013-11.36 2.94c-15.27-4.357-24.64-26.21-36.65-37.88-17.31-16.82-40.49-24.53-63.04-24.53s-46.09 10.15-63.04 24.53c-12.93 10.97-21.38 33.52-36.65 37.88-3.761 1.073-11.36-2.94-11.36-2.94s-6.294 4.546-9.889 5.88c-5.3 1.967-11.07 2.448-16.7 2.94-29.24 2.554-88.07 0-88.07 0v-2.272h-36.05v-2.646h39.76v2.272s55.12 2.554 84.36 0c5.632-0.4919 11.4-0.9731 16.7-2.94 3.596-1.334 9.889-5.88 9.889-5.88s7.598 4.013 11.36 2.94c15.27-4.357 23.72-26.91 36.65-37.88 16.95-14.37 40.49-24.53 63.04-24.53s45.72 7.706 63.04 24.53c12.01 11.67 21.38 33.52 36.65 37.88 3.761 1.073 11.36-2.94 11.36-2.94s6.294 4.546 9.889 5.88c5.3 1.967 11.07 2.448 16.7 2.94 29.24 2.554 84.36 0 84.36 0v-2.272h39.76z"/>
   <path class="church-detail" d="m889 623.3h45.85v2.272s52.47 2.554 81.72 0c5.632-0.4919 11.4-0.9731 16.7-2.94 3.596-1.334 9.889-5.88 9.889-5.88s7.598 4.013 11.36 2.94c15.27-4.357 23.72-26.91 36.65-37.88 16.95-14.37 40.49-24.53 63.04-24.53s45.72 7.706 63.04 24.53c12.01 11.67 21.38 33.52 36.65 37.88 3.761 1.073 11.36-2.94 11.36-2.94s6.294 4.546 9.889 5.88c5.3 1.967 11.07 2.448 16.7 2.94 29.24 2.554 81.72 0 81.72 0v-2.272h45.85v-3.704h-45.85v2.272s-52.47 2.554-81.72 0c-5.632-0.4919-11.4-0.9731-16.7-2.94-3.596-1.334-9.889-5.88-9.889-5.88s-7.598 4.013-11.36 2.94c-15.27-4.357-24.64-26.21-36.65-37.88-17.31-16.82-40.49-24.53-63.04-24.53s-46.09 10.15-63.04 24.53c-12.93 10.97-21.38 33.52-36.65 37.88-3.761 1.073-11.36-2.94-11.36-2.94s-6.294 4.546-9.889 5.88c-5.3 1.967-11.07 2.448-16.7 2.94-29.24 2.554-81.72 0-81.72 0v-2.272h-45.85z"/>
  </g>
 </g>
</svg>
