<?xml version="1.0" encoding="UTF-8"?>
<svg width="21mm" height="50.81mm" version="1.1" viewBox="0 0 21 50.81" xmlns="http://www.w3.org/2000/svg">
 <g transform="translate(77.03 -105.4)">
  <path d="m-72.6 105.4c-0.4265 0.0247-0.8739 0.5211-0.8739 0.5211-1.215-1.372-1.637 0.6376-1.544 0.9188-0.6965 0.1327-1.065 0.2306-1.598 0.7856l0.7457 0.0134s-0.2005 0.31-0.3595 0.6525c0.3627-0.2207 1.465-0.1465 1.465-0.1465l0.0134 0.4929c-0.7994 0.2656-0.8882 1.276 0.5858 1.651 0.5204-0.0441 0.6838-0.8633 1.251-1.049 0.5738-0.1691 0.2521 0.892 0.1529 1.594-0.2122 0.5332-0.1095 0.3952-0.476 0.5645-0.3665 0.1694-2.537 0.2943-2.497 1.175-3.123 0.0462 0.1692 5.423 2.049 6.557 0.1036 0.7511 0.2038 1.311 0.7335 1.896 0.4368 0.3762 0.1774 0.9796 0.0187 1.078-0.6593 0.01-1.233 0.4938-1.711 0.6216-0.3316 0.0887-1.04-0.0962-1.398 0.0399-0.4052 0.154-0.839 0.8922-0.839 0.8922 0.591-0.3836 1.13-0.6129 1.544-0.4661 0 0-0.3462 0.3198-0.4195 0.4929-0.0732 0.1731-0.273 0.6126-0.273 0.6126s1.023-0.6956 1.572-0.6525c0.2854 0.0224 0.6901 0.0787 0.7457 0.3595 0.0393 0.1986-0.3997 0.6126-0.3997 0.6126l1.212-0.1998s0.8568 0.3887 1.079 0.6659c0.2433 0.304 0.2129 1.025 0.2129 1.025l-2.397 29.94 1.012 0.1599 2.503-30.31c0.5418 0.0208 0.604 0.4016 0.8923 0.6126 0 0 0.1165-0.3304 0.0134-0.5593-0.1914-0.425-0.63-0.6897-0.8124-1.119-0.1397-0.3284-0.0664-0.8256-0.0664-0.8256 0.8312 0.2192 1.411 0.6657 2.17 1.065-0.3346-0.5135-0.6093-0.691-1.185-1.238 0 0 0.1669-0.5631 0.3729-0.8658 0.3179-0.4671 0.7029-0.9396 1.212-1.185 0.3224-0.1554 0.8012-0.1942 1.065-0.1334 0.6129 0.1412 1.146 0.2357 1.785 0.0134 0.3801-0.1324 0.7087-0.2956 1.052-0.506 0.3907-0.2395 0.8048-0.4551 1.279-0.506 0.715-0.0769 1.36 0.1945 2.091 0.3994 0.7309 0.205 1.74 0.8593 2.397 0.4795 0.3744-0.2163 0.3064-1.012 0.3064-1.012s0.6961 0.3514 0.9587 0.173c0.2625-0.1783 0.1952-0.4145 0.1331-0.7457-0.062-0.3312-0.506-1.025-0.506-1.025s0.4207 0.4044 0.6924 0.4396c0.2718 0.0352 0.4461-0.0482 0.5593-0.2796 0.1133-0.2314 0.0516-0.4081-0.0798-0.6927-0.1315-0.2846-0.7192-0.7987-0.7192-0.7987s0.112-0.7188-0.0932-1.119-1.238-0.7725-1.238-0.7725-0.0649-0.7112-0.626-1.185c-0.5611-0.4738-1.425-0.4396-1.425-0.4396s-0.2381-0.5208-0.5727-0.679c-0.3346-0.1583-1.198-0.0932-1.198-0.0932s-0.4347-0.7008-1.092-0.8523c-0.6574-0.1516-1.286 0.0268-1.465 0.0664-0.1786 0.0396-0.7646 0.4086-1.107 0.6901-0.3423 0.2814-0.6862 0.6481-0.8372 1.334-0.4604 0.5703-0.3747 1.243-0.2796 1.918 0 0-1.263-1.09-1.598-1.691s-0.4304-1.134-0.5727-1.851c-0.1423-0.7168 0.148-1.202-0.1998-2.317-0.3478-1.116-1.505-2.383-1.505-2.383 1.245 0.2579 2.04 0.8877 2.97 1.811-0.1966-0.6029-0.2667-1.32-1.145-1.785 0.2557-0.2161 0.6764-0.0954 1.145 0.0399-0.3574-0.491-0.9575-0.9226-1.771-0.6257-0.0894-0.4198 0.228-0.6532 0.5593-0.5992-0.3846-0.3395-0.6998-0.4374-1.651-0.3863 0 0 0.0307-0.5341-0.2263-0.7591-0.257-0.2251-1.025 0.1465-1.025 0.1465s-0.2293-0.6071-0.679-0.6525c-0.0281-3e-3 -0.0566-3e-3 -0.0851-2e-3zm1.552 16.11s-0.0897 0.6824-0.1197 1.059c-0.021 0.2633 0 0.7923 0 0.7923s-0.7342-0.2143-0.9258-0.453c-0.1121-0.1395-0.113-0.4859-0.113-0.4859s0.2705 0.0457 0.3461 0.0197c0.1541-0.0528 0.1814-0.1942 0.2998-0.3062 0.1966-0.1859 0.5127-0.626 0.5127-0.626zm-1.958 1.332s0.1288 0.2205 0.2065 0.3129c0.1956 0.2324 0.4436 0.342 0.739 0.4128 0.1943 0.0465 0.6004 0.0743 0.6004 0.0743s0.0997 0.3119-0.0632 0.4574c-0.211 0.1884-0.4856 0.1005-0.7769 0.0987-0.2385-1e-3 -0.742 0.0509-0.742 0.0509s-0.0307-0.3214-0.1081-0.4812c-0.0807-0.1667-0.3484-0.4466-0.3484-0.4466s0.0478-0.1794 0.1151-0.263c0.1004-0.1247 0.3775-0.2162 0.3775-0.2162z"/>
 </g>
</svg>
