<?xml version="1.0" encoding="UTF-8"?>
<svg width="67.94mm" height="17.102mm" version="1.1" viewBox="0 0 67.94 17.102" xmlns="http://www.w3.org/2000/svg"><g transform="translate(-40.113 -79.895)"><path class="firulas" transform="scale(.26458)" d="m305.91 301.97c-2.589 0.0101-5.1553 1.0728-7.1836 2.791-4.0977 3.4712-4.8466 9.8376-1.3008 13.975 3.1607 3.6878 8.9276 4.3514 12.652 1.1133 3.278-2.8499 3.8586-8.0181 0.92773-11.33-2.5385-2.8683-7.111-3.3643-10.01-0.74023-2.4598 2.2268-2.8709 6.2028-0.55274 8.6875 1.914 2.0515 5.2958 2.3785 7.3652 0.36523 1.6445-1.5999 1.8902-4.3911 0.17969-6.043-1.2834-1.2393-3.4912-1.4036-4.7207 8e-3 -0.83781 0.96163-0.92611 2.6032 0.19336 3.3984 0.62583 0.44453 1.7599 0.46204 2.0762-0.38086 0.11668-0.31108-0.11249-1.0954-0.5664-0.75391-0.45187 0.43556-1.0592-0.31365-0.98633-0.71289 0.16578-0.90864 1.2747-1.7621 2.6738-0.72266 1.9101 1.4164 0.97987 3.2218-0.043 4.1562-1.0817 0.98818-3.1894 0.64347-4.3828-0.35156-1.9438-1.6207-1.8203-4.4289-0.4961-5.8867 1.7472-1.9236 5.2564-2.9601 7.7949-0.0918 2.9309 3.312 1.903 6.9857-0.48242 8.9453-1.8453 1.5161-5.779 2.7055-8.7715 0.32422-4.2635-3.3928-3.43-7.7075-1.5898-10.875 1.761-3.0314 6.4003-4.8137 9.7949-3.832 5.9196 1.8069 7.8376 3.9719 11.365 8.5391 2.1599 2.8154 3.5559 5.8475 5.4512 9.1582 1.8952 3.3106 3.8449 7.0714 6.4043 10.25 3.3156 4.1177 7.1799 7.9935 11.748 10.654 4.8564 2.8287 10.45 4.4808 16.014 5.2734 4.3916 0.62549 8.8982 0.0912 13.299-0.4668 3.5607-0.45143 11.814-3.5 11.814-3.5s-7.2323 2.1286-10.793 2.5801c-4.4007 0.55801-8.9073 1.0923-13.299 0.46679-5.564-0.79258-11.157-2.4448-16.014-5.2734-4.5682-2.6608-8.4325-6.5386-11.748-10.656-2.5594-3.1786-4.5091-6.9374-6.4043-10.248-1.8952-3.3107-3.0257-6.417-5.1856-9.2324-3.5276-4.5672-6.7269-7.4255-12.646-9.2324-0.84866-0.24541-1.7151-0.35885-2.5781-0.35547zm-49.441 1.6426c-0.43412 0.0119-0.87155 0.0546-1.3066 0.13085-6.0799 1.1582-9.567 3.6562-13.566 7.8164-2.4508 2.5662-3.9112 5.532-6.1524 8.6191-2.2411 3.087-4.5855 6.6139-7.4726 9.498-3.7402 3.7362-7.9978 7.1753-12.826 9.3281-5.133 2.2886-10.873 3.3275-16.49 3.5156-4.4334 0.14838-8.857-0.86922-13.172-1.8984-3.4913-0.83268-10.451-3.7266-10.451-3.7266s7.8779 3.9193 11.369 4.752c4.3149 1.0292 8.7365 2.0468 13.17 1.8984 5.617-0.18811 11.357-1.227 16.49-3.5156 4.8284-2.1528 9.088-5.5919 12.828-9.3281 2.8872-2.8841 5.2296-6.4111 7.4707-9.498 2.2411-3.0871 3.9554-5.9534 6.4062-8.5195 3.9994-4.1602 6.1428-6.1055 12.223-7.2637 3.4807-0.60993 7.8983 1.6636 9.3223 4.8672 1.4879 3.3475 1.8525 7.7253-2.752 10.639-3.2318 2.0448-7.0144 0.43863-8.6856-1.2676-2.1602-2.2054-2.7865-5.9686 0.48438-8.9453 2.8329-2.578 6.2106-1.1691 7.7402 0.93164 1.1593 1.5921 0.97829 4.3991-1.1289 5.8008-1.2937 0.86057-3.4257 0.97404-4.3945-0.125-0.91614-1.0392-1.6454-2.9345 0.40625-4.1367 1.503-0.88253 2.5132 0.0866 2.5801 1.0078 0.0295 0.40477-0.65437 1.0833-1.0566 0.60157-0.41446-0.38842-0.72894 0.36762-0.64648 0.68945 0.22348 0.87208 1.3533 0.97799 2.0234 0.60351 1.1987-0.66988 1.2879-2.313 0.5586-3.3594-1.0702-1.5357-3.2819-1.6094-4.6914-0.51563-1.8786 1.4578-1.9351 4.2595-0.47266 6.0274 1.8404 2.2246 5.2373 2.2629 7.3613 0.42969 2.5725-2.2204 2.5921-6.2163 0.38672-8.6953-2.599-2.9213-7.1983-2.9217-10.031-0.34375-3.2708 2.9767-3.2524 8.1786-0.30078 11.365 3.3539 3.6208 9.1594 3.5814 12.699 0.25586 3.9711-3.7307 3.9144-10.14 0.21484-14.033-2.1364-2.248-5.0979-3.689-8.1367-3.6055zm56.652 13.879s0.24704 1.6756 1.5039 4.0469c1.2868 2.4277 3.0734 5.2495 3.8984 6.6953 1.8608 3.2609 3.9076 6.0343 6.3281 8.9043 2.5482 3.0214 4.3255 5.1165 7.459 7.5254 3.0744 2.3634 6.3677 4.5762 9.8242 6.334 3.7733 1.9188 5.9375 2.6343 9.9707 3.9199 2.6122 0.83264 7.1839 2.2476 9.9199 2.4238 3.0981 0.19952 6.2071-0.3326 9.2793-0.7793 2.4363-0.35425 4.8566-0.85856 7.2324-1.5039 3.0507-0.82604 5.9673-1.7245 8.793-3.1406 1.6162-0.80973 5.168-3.4277 5.168-3.4277s-2.5303 1.7-4.1465 2.5098c-2.8257 1.4161-5.7422 2.3146-8.793 3.1406-2.3771 0.64097-4.7942 1.1496-7.2305 1.5039-3.0722 0.4467-6.1832 0.97881-9.2812 0.7793-2.736-0.17628-5.4269-0.90173-8.0391-1.7344-4.0332-1.2856-7.5685-2.4914-11.342-4.4102-3.4566-1.7577-7.2596-4.1698-10.334-6.5332-3.1335-2.4089-5.7585-5.4884-8.3066-8.5098-2.4206-2.87-4.7037-5.9598-6.5644-9.2207-1.65-2.8917-5.3398-8.5234-5.3398-8.5234zm-64.197 0.83008s-4.2763 5.2015-6.2285 7.8984c-2.2015 3.0413-4.8056 5.8666-7.5215 8.459-2.859 2.7291-5.8008 5.5074-9.1758 7.5644-3.3113 2.0182-7.3526 4.008-10.979 5.3828-3.9581 1.5008-7.6017 2.3168-11.75 3.1602-2.6867 0.54618-5.4406 0.97716-8.1797 0.85742-3.1015-0.13565-6.1364-1.0001-9.1426-1.7754-2.3839-0.61485-4.7332-1.3799-7.0273-2.2734-2.9439-1.1501-5.7478-2.3578-8.4043-4.0703-1.5195-0.97925-3.8496-2.9414-3.8496-2.9414s3.2481 2.9856 4.7676 3.9648c2.6566 1.7125 5.4604 2.9182 8.4043 4.0684 2.2924 0.89772 4.6434 1.6605 7.0274 2.2754 3.0061 0.77531 6.041 1.6398 9.1426 1.7754 2.7391 0.11974 7.4363-0.79562 10.123-1.3418 4.1483-0.8433 6.3778-1.3214 10.336-2.8223 3.6259-1.3748 7.138-3.2181 10.449-5.2363 3.3749-2.057 5.3675-3.9487 8.2266-6.6777 2.7159-2.5923 5.0485-5.1286 7.25-8.1699 0.97609-1.3485 3.0566-3.9615 4.5977-6.2363 1.5052-2.222 1.9336-3.8613 1.9336-3.8613zm-84.545 0.92773c-3.9029-0.0654-7.7937 1.7003-10.174 4.916-2.5133 3.3959-3.3554 9.1012-1.8301 13.312 0.80327 2.2177 1.7874 3.9768 3.043 5.7422 1.3253 1.8633 3.0278 3.6901 4.6719 5.0234 3.3542 2.7202 5.8282 4.7372 10.346 7.166 0 0 6.5485 2.9888 9.9941 3.9824 3.8322 1.105 7.794 1.8262 11.768 2.1699 3.776 0.32659 7.5158-0.19304 11.266-0.74414 4.4372-0.65206 8.7954-1.6287 13.027-3.1133 4.418-1.5498 7.8479-2.9766 11.896-5.3281 2.978-1.7297 6.6201-4.1462 9.2422-6.3789 3.1142-2.6518 6.1097-5.4346 8.8848-8.4394 2.3865-2.5841 4.6633-5.2942 6.6523-8.1953 0.94192-1.3738 2.5273-4.3106 2.5273-4.3106l-2.2226-0.64063s-1.4395 3.0514-2.5488 4.6562c-1.7236 2.4936-4.1464 5.4719-6.2441 7.6602-2.4803 2.5872-5.0044 4.7864-7.7305 7.1133-2.3093 1.9711-4.7777 3.6531-7.373 5.2285-2.7872 1.6918-5.7142 3.202-8.7226 4.459-2.4384 1.0188-4.9028 2.0021-7.4453 2.7227-2.8989 0.82156-5.8716 1.3939-8.8555 1.8125-3.0618 0.42949-6.1587 0.83561-9.248 0.71289-3.5202-0.13981-7.0269-0.77124-10.439-1.6465-2.3394-0.60003-4.5801-1.5429-6.8164-2.4551-2.5774-1.0516-5.1238-2.1927-7.5957-3.4727-1.5087-0.78123-2.8337-1.3289-5.0117-2.7188-2.962-1.8903-3.6718-2.591-5.709-4.3398-2.4757-2.1252-4.1314-4.9408-5.4375-8.373-1.5434-3.9311 0.15238-9.5726 3.6641-11.916 3.6697-2.4488 8.8391-3.8048 13.408 0.94727 3.2068 3.3354 2.1614 8.0893 0.5039 10.402-2.1424 2.99-6.5134 4.5222-10.848 1.3398-3.7536-2.7565-2.8494-6.9966-0.68555-9.2285 1.6401-1.6918 5.0496-2.078 7.2227 0.082 1.3342 1.3263 1.9678 3.7879 0.875 5.1524-1.0334 1.2902-3.1376 2.5458-5.0586 0.4082-1.4094-1.5658-0.48222-2.9505 0.60743-3.2246 0.47874-0.1203 1.453 0.53359 0.96875 1.1055-0.36945 0.56612 0.61079 0.771 0.97851 0.60547 0.99418-0.44638 0.85548-1.7861 0.25-2.4883-1.0834-1.2557-3.0728-1.0111-4.1582 0.0625-1.593 1.5755-1.1665 4.1725 0.47461 5.584 2.1869 1.882 5.5616 1.3522 7.3418-0.73047 2.2402-2.6209 1.4936-6.5936-1.2012-8.6816-3.2639-2.5287-8.0631-1.6987-10.523 1.4023-2.8991 3.6543-1.8277 9.0188 1.9258 11.775 4.3342 3.1824 10.572 2.052 13.707-2.0703 3.5624-4.6841 2.161-11.449-2.6543-14.871-2.0258-1.4397-4.3711-2.1385-6.7129-2.1777zm151.05 0.21094s1.2439 2.2681 2.3398 3.3398c0.50303 0.49202 1.873 1.2674 2.8203 1.4434 0.29628 0.0552 0.57661 0.0658 0.82618 0.0566a2.03 2.03 0 0 0-0.15625 1.4668 2.03 2.03 0 0 0 2.4941 1.4199 2.03 2.03 0 0 0 1.4199-2.4961 2.03 2.03 0 0 0-2.3418-1.4531c-0.0771 7e-3 -2.0026 0.17399-3.0996-0.29883-0.6754-0.29114-1.1941-0.55679-2.248-1.4141-1.0539-0.85728-2.0547-2.0644-2.0547-2.0644zm-69.023 0.56836s-1.1254 1.0934-2.2656 1.832c-1.1402 0.73865-1.6819 0.94746-2.3848 1.1641-1.1415 0.35179-3.0393-0.022-3.1152-0.0371a2.03 2.03 0 0 0-2.4844 1.1934 2.03 2.03 0 0 0 1.1426 2.6328 2.03 2.03 0 0 0 2.6328-1.1426 2.03 2.03 0 0 0 2e-3 -1.4746c0.24713 0.036 0.52766 0.0563 0.82813 0.0332 0.96081-0.0727 2.4058-0.69593 2.959-1.1309 1.2051-0.94738 2.6856-3.0703 2.6856-3.0703zm61.533 3.0254-2.2793 0.39844s1.2605 3.0912 2.0488 4.5586c1.6647 3.0986 3.6345 6.037 5.7285 8.8633 2.4349 3.2865 5.1117 6.3776 7.9219 9.3496 2.366 2.5024 5.7278 5.2952 8.502 7.3359 3.7714 2.7743 7.0287 4.5649 11.254 6.582 4.0473 1.9322 8.2742 3.3734 12.615 4.5 3.6685 0.95213 7.33 1.8688 11.119 1.9512 3.9874 0.0867 8.0026-0.20321 11.932-0.88867 3.5327-0.61631 10.365-2.8809 10.365-2.8809 4.753-1.9276 7.4327-3.665 11.061-6.0078 1.7783-1.1483 3.6671-2.7807 5.1856-4.4902 1.4386-1.6197 2.6069-3.2627 3.6445-5.3809 1.9705-4.0224 1.7478-9.7846-0.38477-13.432-3.2312-5.5258-10.71-7.7793-16.494-4.5449-5.1562 2.8832-7.2769 9.4591-4.2402 14.5 2.6726 4.4363 8.7503 6.2318 13.402 3.5352 4.0288-2.3358 5.6737-7.5545 3.1856-11.5-2.1117-3.3482-6.795-4.6894-10.312-2.5273-2.9042 1.7853-4.0735 5.6529-2.1289 8.5 1.5453 2.2624 4.8436 3.1547 7.2207 1.5195 1.7837-1.2263 2.4862-3.7619 1.0723-5.5-0.96329-1.1843-2.9145-1.6433-4.127-0.51172-0.67782 0.63282-0.95977 1.951-0.0195 2.502 0.34775 0.20422 1.3432 0.10461 1.0371-0.49804-0.41972-0.62075 0.62099-1.1654 1.084-0.99415 1.0538 0.38997 1.8239 1.8687 0.25391 3.2734-2.1402 1.9181-4.0941 0.441-4.9824-0.95312-0.93933-1.4743-0.0437-3.8526 1.4258-5.0274 2.3933-1.9132 5.7393-1.1614 7.1875 0.69727 1.9106 2.4522 2.3512 6.7658-1.6777 9.1016-4.6521 2.6965-8.8311 0.70157-10.639-2.502-1.3985-2.4782-1.9246-7.3189 1.623-10.289 5.0548-4.2318 10.047-2.3243 13.432 0.50586 3.2386 2.7084 4.3176 8.4984 2.3594 12.24-1.6685 3.2714-3.6202 5.8924-6.3105 7.7383-2.2139 1.519-2.994 2.1393-6.1426 3.6992-2.3152 1.147-3.6912 1.5481-5.2754 2.1621-2.5955 1.006-5.25 1.8652-7.9258 2.6328-2.3216 0.66572-4.6505 1.3627-7.041 1.707-3.487 0.50212-7.0419 0.7503-10.557 0.50977-3.0846-0.21105-6.1195-0.94799-9.1172-1.7051-2.9214-0.73783-5.8159-1.6266-8.6094-2.7559-2.4501-0.9905-4.7931-2.234-7.1074-3.5098-2.8554-1.574-5.6029-3.3906-8.1914-5.373-2.4104-1.8461-4.6842-3.7856-6.7676-5.9941-2.4594-2.6072-4.731-5.0647-6.918-7.9043-1.8496-2.4016-3.9381-5.6242-5.3828-8.2891-0.92982-1.7151-2.0293-4.9043-2.0293-4.9043zm-68.4 4.8574s-1.1254 1.0934-2.2656 1.832c-1.1402 0.73856-1.6819 0.94746-2.3848 1.1641-1.1416 0.35179-3.0393-0.022-3.1152-0.0371a2.03 2.03 0 0 0-2.4844 1.1934 2.03 2.03 0 0 0 1.1426 2.6328 2.03 2.03 0 0 0 2.6328-1.1426 2.03 2.03 0 0 0 4e-3 -1.4746c0.24713 0.0359 0.5257 0.0563 0.82617 0.0332 0.96082-0.0728 2.4058-0.69596 2.959-1.1309 1.2051-0.9474 2.6855-3.0703 2.6855-3.0703zm81.867 0.125s1.2439 2.268 2.3398 3.3398c0.50303 0.492 1.8729 1.2694 2.8203 1.4453 0.29624 0.0552 0.57659 0.0639 0.82617 0.0547a2.03 2.03 0 0 0-0.15625 1.4668 2.03 2.03 0 0 0 2.4941 1.4199 2.03 2.03 0 0 0 1.4199-2.4942 2.03 2.03 0 0 0-2.3418-1.4531c-0.0771 7e-3 -2.0026 0.17403-3.0996-0.29883-0.67539-0.2911-1.1922-0.55884-2.2461-1.416-1.0539-0.8573-2.0566-2.0645-2.0566-2.0645zm-89.676 9.1621s-1.3623 0.77901-2.6504 1.2109c-1.288 0.43172-1.865 0.50001-2.5996 0.53516-1.1932 0.0568-2.936-0.7822-3.0078-0.81055a2.03 2.03 0 0 0-2.7031 0.53516 2.03 2.03 0 0 0 0.45117 2.8359 2.03 2.03 0 0 0 2.834-0.45117 2.03 2.03 0 0 0 0.37109-1.4297c0.23053 0.096 0.49421 0.18598 0.79102 0.23829 0.9487 0.16852 2.5045-0.0758 3.1484-0.35938 1.4029-0.61796 3.3652-2.3047 3.3652-2.3047zm96.439 0.91407s1.7676 1.8867 3.0957 2.6523c0.60957 0.35134 2.1304 0.76254 3.0918 0.69726 0.30074-0.02 0.57296-0.0817 0.8125-0.15234a2.03 2.03 0 0 0 0.21485 1.4609 2.03 2.03 0 0 0 2.7695 0.7539 2.03 2.03 0 0 0 0.7539-2.7695 2.03 2.03 0 0 0-2.6309-0.82422c-0.0744 0.0204-1.8961 0.66556-3.0762 0.48047-0.72658-0.11399-1.2934-0.2425-2.5273-0.81054-1.234-0.56829-2.5039-1.4883-2.5039-1.4883zm-145.44 4.0898a2.7835 2.0247 45.19 0 0-0.36133 0.0332 2.7835 2.0247 45.19 0 0-1.0254 2.8125 2.7835 2.0247 45.19 0 0 3.2812 1.9902 2.7835 2.0247 45.19 0 0 1.1582-0.91602c0.19539 0.27617 0.43179 0.57585 0.72266 0.86914 0.92791 0.94053 2.7264 2.0358 3.5684 2.332 1.8341 0.6464 4.8379 0.84571 4.8379 0.84571s-1.8766-0.47342-3.4883-1.1836c-1.6119-0.70972-2.2676-1.1382-3.0742-1.7246-1.3103-0.95208-2.734-3.1311-2.793-3.2168a2.7835 2.0247 45.19 0 0-2.8262-1.8418zm38.086 0.67383s-1.5 0.78584-2.9316 1.2226c-1.4315 0.43648-2.0784 0.50593-2.9043 0.54297-1.3413 0.0602-3.3413-0.77489-3.4219-0.80664a2.2939 2.03 8.7233 0 0-3.0234 0.54688 2.2939 2.03 8.7233 0 0 0.63476 2.8418 2.2939 2.03 8.7233 0 0 3.1738-0.46093 2.2939 2.03 8.7233 0 0 0.35352-1.4336c0.26353 0.0966 0.56577 0.18455 0.90234 0.23633 1.076 0.16661 2.8167-0.083 3.5293-0.36914 1.5526-0.62362 3.6875-2.3203 3.6875-2.3203zm-24.576 1.3867a2.7835 2.0247 28.925 0 0-0.97656 0.23437 2.7835 2.0247 28.925 0 0-0.19726 2.9863 2.7835 2.0247 28.925 0 0 3.709 0.99219 2.7835 2.0247 28.925 0 0 0.85352-1.2031c0.2649 0.21037 0.5761 0.4307 0.9375 0.63086 1.1542 0.64298 3.1889 1.1912 4.0801 1.2402 1.9417 0.10686 4.8789-0.54492 4.8789-0.54492s-1.9335 0.0698-3.6797-0.16015c-1.7461-0.22988-2.495-0.45407-3.4336-0.79102-1.5245-0.54701-3.5014-2.2411-3.582-2.3066a2.7835 2.0247 28.925 0 0-2.5898-1.0781zm142.17 0.66992s1.9397 1.9177 3.416 2.7051c0.67758 0.36132 2.3811 0.79573 3.4688 0.74609 0.34019-0.0151 0.65141-0.0691 0.92383-0.13672a2.03 2.2939 87.466 0 0 0.19531 1.4629 2.03 2.2939 87.466 0 0 3.1055 0.80078 2.03 2.2939 87.466 0 0 0.9375-2.7578 2.03 2.2939 87.466 0 0-2.9453-0.86914c-0.0835 0.0231-2.1632 0.6361-3.4902 0.43164-0.81706-0.12586-1.454-0.26526-2.8301-0.85352-1.3762-0.5886-2.7812-1.5293-2.7812-1.5293zm37.684 3.4199a2.0247 2.7835 50.999 0 0-2.7559 1.541c-0.0678 0.0788-1.7178 2.0932-3.123 2.8984-0.86514 0.49599-1.5632 0.84905-3.2422 1.3809-1.6789 0.53227-3.5957 0.80274-3.5957 0.80274s3.0073 0.12461 4.9004-0.32032c0.86895-0.20379 2.7749-1.0986 3.7988-1.9336 0.32081-0.26022 0.58848-0.53166 0.8125-0.78516a2.0247 2.7835 50.999 0 0 1.0527 1.0352 2.0247 2.7835 50.999 0 0 3.4766-1.625 2.0247 2.7835 50.999 0 0-0.7168-2.9062 2.0247 2.7835 50.999 0 0-0.60742-0.0879zm-13.814 0.58008a2.0247 2.7835 67.264 0 0-2.2773 0.81836c-0.0872 0.0565-2.2359 1.5287-3.8106 1.9082-0.96942 0.2338-1.7373 0.3777-3.498 0.41797-1.7608 0.0403-3.6758-0.23828-3.6758-0.23828 0 0 2.8511 0.9633 4.793 1.0664 0.89128 0.0473 2.9727-0.27818 4.1895-0.79296 0.38086-0.16003 0.712-0.34481 0.99804-0.5254a2.0247 2.7835 67.264 0 0 0.72071 1.2891 2.0247 2.7835 67.264 0 0 3.793-0.58594 2.0247 2.7835 67.264 0 0 0.12695-2.9922 2.0247 2.7835 67.264 0 0-1.3594-0.36523z"/></g></svg>
